<svg width="222" height="29" viewBox="0 0 222 29" fill="none" xmlns="http://www.w3.org/2000/svg">
<path d="M7.30213 28.432C6.07813 28.432 4.84213 28.3 3.59413 28.036C2.34613 27.796 1.25413 27.496 0.318125 27.136L0.246125 26.848C0.342125 26.416 0.402125 25.828 0.426125 25.084C0.474125 24.34 0.498125 23.584 0.498125 22.816C0.522125 22.048 0.534125 21.424 0.534125 20.944V6.832C0.534125 6.472 0.534125 6.028 0.534125 5.5C0.534125 4.972 0.522125 4.42 0.498125 3.844C0.474125 3.244 0.438125 2.692 0.390125 2.188C0.366125 1.66 0.318125 1.24 0.246125 0.927999L0.318125 0.639998H3.84613V22.672C3.84613 23.392 3.81013 24.016 3.73813 24.544C3.69013 25.048 3.63013 25.48 3.55813 25.84L2.98213 24.832C3.55813 25.024 4.21813 25.192 4.96213 25.336C5.70613 25.48 6.48613 25.552 7.30213 25.552C9.60613 25.552 11.3101 24.916 12.4141 23.644C13.5181 22.372 14.0701 20.512 14.0701 18.064C14.0701 15.832 13.4941 14.08 12.3421 12.808C11.2141 11.512 9.53413 10.864 7.30213 10.864C6.67813 10.864 6.13813 10.9 5.68213 10.972C5.22613 11.02 4.77013 11.104 4.31413 11.224C3.85813 11.344 3.31813 11.512 2.69413 11.728V8.992C3.53413 8.632 4.37413 8.38 5.21413 8.236C6.07813 8.068 6.87013 7.984 7.59013 7.984C9.65413 7.984 11.4181 8.392 12.8821 9.208C14.3701 10.024 15.4981 11.188 16.2661 12.7C17.0581 14.212 17.4541 16 17.4541 18.064C17.4541 20.224 17.0461 22.084 16.2301 23.644C15.4141 25.18 14.2501 26.368 12.7381 27.208C11.2261 28.024 9.41413 28.432 7.30213 28.432ZM29.628 28.432C26.82 28.432 24.708 27.928 23.292 26.92C21.9 25.888 21.204 24.328 21.204 22.24C21.204 20.848 21.54 19.696 22.212 18.784C22.908 17.872 23.88 17.188 25.128 16.732C26.4 16.276 27.9 16.048 29.628 16.048C30.972 16.048 32.088 16.168 32.976 16.408C33.888 16.624 34.668 16.84 35.316 17.056V19.648C34.668 19.432 33.864 19.24 32.904 19.072C31.944 18.88 31.044 18.784 30.204 18.784C28.26 18.784 26.808 19.036 25.848 19.54C24.912 20.044 24.444 20.944 24.444 22.24C24.444 23.464 24.9 24.352 25.812 24.904C26.724 25.432 28.044 25.696 29.772 25.696C30.732 25.696 31.656 25.624 32.544 25.48C33.432 25.312 34.26 25.096 35.028 24.832L34.38 25.804C34.332 25.612 34.284 25.396 34.236 25.156C34.212 24.916 34.188 24.664 34.164 24.4C34.14 24.136 34.116 23.86 34.092 23.572C34.092 23.284 34.092 22.984 34.092 22.672V16.192C34.092 14.656 33.876 13.516 33.444 12.772C33.036 12.004 32.412 11.5 31.572 11.26C30.756 10.996 29.724 10.864 28.476 10.864C27.54 10.864 26.58 10.984 25.596 11.224C24.636 11.464 23.868 11.728 23.292 12.016H23.004V9.064C23.868 8.704 24.828 8.44 25.884 8.272C26.964 8.08 27.972 7.984 28.908 7.984C30.108 7.984 31.212 8.092 32.22 8.308C33.252 8.524 34.152 8.92 34.92 9.496C35.712 10.048 36.324 10.852 36.756 11.908C37.188 12.964 37.404 14.344 37.404 16.048V20.8C37.404 21.28 37.404 21.904 37.404 22.672C37.428 23.44 37.452 24.196 37.476 24.94C37.524 25.684 37.596 26.272 37.692 26.704L37.62 26.992C36.828 27.28 35.952 27.532 34.992 27.748C34.032 27.964 33.072 28.132 32.112 28.252C31.176 28.372 30.348 28.432 29.628 28.432ZM44.0224 28V15.616C44.0224 15.136 44.0104 14.512 43.9864 13.744C43.9864 12.976 43.9624 12.22 43.9144 11.476C43.8904 10.732 43.8304 10.144 43.7344 9.712L43.8064 9.424C44.4304 9.184 45.2224 8.956 46.1824 8.74C47.1424 8.524 48.1144 8.344 49.0984 8.2C50.0824 8.056 50.9344 7.984 51.6544 7.984C52.8544 7.984 53.9704 8.116 55.0024 8.38C56.0344 8.62 56.9464 9.064 57.7384 9.712C58.5544 10.336 59.1784 11.2 59.6104 12.304C60.0664 13.384 60.2944 14.776 60.2944 16.48V28H56.9824V16.768C56.9824 15.184 56.7544 13.972 56.2984 13.132C55.8424 12.268 55.1824 11.68 54.3184 11.368C53.4544 11.032 52.4224 10.864 51.2224 10.864C50.4544 10.864 49.6264 10.948 48.7384 11.116C47.8744 11.284 47.1184 11.488 46.4704 11.728L47.0464 10.72C47.1424 11.08 47.2144 11.536 47.2624 12.088C47.3104 12.616 47.3344 13.168 47.3344 13.744V28H44.0224ZM68.9285 28L63.7445 8.848V8.416H67.0565L71.4125 25.984L70.6925 25.948L76.1285 8.416H78.2885L83.5445 26.02L82.8245 26.056L87.3605 8.416H90.6725V8.848L85.2005 28H81.3125L76.7405 13.096H77.5325L72.8165 28H68.9285ZM100.855 28.432C98.0466 28.432 95.9346 27.928 94.5186 26.92C93.1266 25.888 92.4306 24.328 92.4306 22.24C92.4306 20.848 92.7666 19.696 93.4386 18.784C94.1346 17.872 95.1066 17.188 96.3546 16.732C97.6266 16.276 99.1266 16.048 100.855 16.048C102.199 16.048 103.315 16.168 104.203 16.408C105.115 16.624 105.895 16.84 106.543 17.056V19.648C105.895 19.432 105.091 19.24 104.131 19.072C103.171 18.88 102.271 18.784 101.431 18.784C99.4866 18.784 98.0346 19.036 97.0746 19.54C96.1386 20.044 95.6706 20.944 95.6706 22.24C95.6706 23.464 96.1266 24.352 97.0386 24.904C97.9506 25.432 99.2706 25.696 100.999 25.696C101.959 25.696 102.883 25.624 103.771 25.48C104.659 25.312 105.487 25.096 106.255 24.832L105.607 25.804C105.559 25.612 105.511 25.396 105.463 25.156C105.439 24.916 105.415 24.664 105.391 24.4C105.367 24.136 105.343 23.86 105.319 23.572C105.319 23.284 105.319 22.984 105.319 22.672V16.192C105.319 14.656 105.103 13.516 104.671 12.772C104.263 12.004 103.639 11.5 102.799 11.26C101.983 10.996 100.951 10.864 99.7026 10.864C98.7666 10.864 97.8066 10.984 96.8226 11.224C95.8626 11.464 95.0946 11.728 94.5186 12.016H94.2306V9.064C95.0946 8.704 96.0546 8.44 97.1106 8.272C98.1906 8.08 99.1986 7.984 100.135 7.984C101.335 7.984 102.439 8.092 103.447 8.308C104.479 8.524 105.379 8.92 106.147 9.496C106.939 10.048 107.551 10.852 107.983 11.908C108.415 12.964 108.631 14.344 108.631 16.048V20.8C108.631 21.28 108.631 21.904 108.631 22.672C108.655 23.44 108.679 24.196 108.703 24.94C108.751 25.684 108.823 26.272 108.919 26.704L108.847 26.992C108.055 27.28 107.179 27.532 106.219 27.748C105.259 27.964 104.299 28.132 103.339 28.252C102.403 28.372 101.575 28.432 100.855 28.432ZM118.715 28L111.803 8.848V8.416H115.259L121.451 26.344H120.551L126.923 8.416H130.235V8.848L123.035 28H118.715ZM143.063 28.288C141.239 28.288 139.643 28.072 138.275 27.64C136.931 27.184 135.803 26.524 134.891 25.66C134.003 24.796 133.343 23.74 132.911 22.492C132.479 21.22 132.263 19.768 132.263 18.136C132.263 16.096 132.635 14.32 133.379 12.808C134.147 11.272 135.203 10.084 136.547 9.244C137.915 8.404 139.511 7.984 141.335 7.984C143.447 7.984 145.151 8.416 146.447 9.28C147.743 10.144 148.667 11.356 149.219 12.916C149.795 14.476 150.047 16.288 149.975 18.352L149.939 19.36H134.567V16.624H146.519V16.336C146.519 14.536 146.087 13.18 145.223 12.268C144.359 11.332 143.063 10.864 141.335 10.864C140.327 10.864 139.391 11.08 138.527 11.512C137.663 11.944 136.967 12.676 136.439 13.708C135.911 14.74 135.647 16.144 135.647 17.92V18.136C135.647 19.984 135.971 21.436 136.619 22.492C137.267 23.548 138.155 24.304 139.283 24.76C140.435 25.192 141.743 25.408 143.207 25.408C144.431 25.408 145.475 25.288 146.339 25.048C147.203 24.808 147.887 24.544 148.391 24.256H148.679V27.208C148.103 27.496 147.347 27.748 146.411 27.964C145.475 28.18 144.359 28.288 143.063 28.288ZM156.911 28.288C156.263 28.288 155.711 28.084 155.255 27.676C154.823 27.268 154.607 26.704 154.607 25.984C154.607 25.264 154.823 24.7 155.255 24.292C155.711 23.884 156.263 23.68 156.911 23.68C157.559 23.68 158.099 23.884 158.531 24.292C158.987 24.7 159.215 25.264 159.215 25.984C159.215 26.704 158.987 27.268 158.531 27.676C158.099 28.084 157.559 28.288 156.911 28.288ZM165.417 28V6.832C165.417 6.352 165.405 5.728 165.381 4.96C165.381 4.192 165.357 3.436 165.309 2.692C165.285 1.948 165.225 1.36 165.129 0.927999L165.201 0.639998H168.729V28H165.417ZM177.303 4.96C176.703 4.96 176.187 4.768 175.755 4.384C175.347 3.976 175.143 3.448 175.143 2.8C175.143 2.152 175.347 1.636 175.755 1.252C176.187 0.843998 176.703 0.639998 177.303 0.639998C177.927 0.639998 178.443 0.843998 178.851 1.252C179.259 1.636 179.463 2.152 179.463 2.8C179.463 3.448 179.259 3.976 178.851 4.384C178.443 4.768 177.927 4.96 177.303 4.96ZM175.647 28V14.608C175.647 14.128 175.635 13.504 175.611 12.736C175.611 11.968 175.587 11.212 175.539 10.468C175.515 9.724 175.455 9.136 175.359 8.704L175.431 8.416H178.959V28H175.647ZM189.766 28L182.854 8.848V8.416H186.31L192.502 26.344H191.602L197.974 8.416H201.286V8.848L194.086 28H189.766ZM214.113 28.288C212.289 28.288 210.693 28.072 209.325 27.64C207.981 27.184 206.853 26.524 205.941 25.66C205.053 24.796 204.393 23.74 203.961 22.492C203.529 21.22 203.313 19.768 203.313 18.136C203.313 16.096 203.685 14.32 204.429 12.808C205.197 11.272 206.253 10.084 207.597 9.244C208.965 8.404 210.561 7.984 212.385 7.984C214.497 7.984 216.201 8.416 217.497 9.28C218.793 10.144 219.717 11.356 220.269 12.916C220.845 14.476 221.097 16.288 221.025 18.352L220.989 19.36H205.617V16.624H217.569V16.336C217.569 14.536 217.137 13.18 216.273 12.268C215.409 11.332 214.113 10.864 212.385 10.864C211.377 10.864 210.441 11.08 209.577 11.512C208.713 11.944 208.017 12.676 207.489 13.708C206.961 14.74 206.697 16.144 206.697 17.92V18.136C206.697 19.984 207.021 21.436 207.669 22.492C208.317 23.548 209.205 24.304 210.333 24.76C211.485 25.192 212.793 25.408 214.257 25.408C215.481 25.408 216.525 25.288 217.389 25.048C218.253 24.808 218.937 24.544 219.441 24.256H219.729V27.208C219.153 27.496 218.397 27.748 217.461 27.964C216.525 28.18 215.409 28.288 214.113 28.288Z" fill="white"/>
</svg>
