<svg width="62" height="62" viewBox="0 0 62 62" fill="none" xmlns="http://www.w3.org/2000/svg">
<rect width="62" height="62" rx="11.2048" fill="#1B1B1B" fill-opacity="0.28"/>
<rect x="1.12048" y="1.12048" width="59.759" height="59.759" rx="10.0843" stroke="white" stroke-opacity="0.56" stroke-width="2.24096"/>
<mask id="path-3-outside-1_110_27" maskUnits="userSpaceOnUse" x="6" y="20" width="48" height="24" fill="black">
<rect fill="white" x="6" y="20" width="48" height="24"/>
<path d="M24.1326 43C23.5566 40.3547 23.0126 38.1893 22.5006 36.504H11.6206C11.1086 38.1893 10.5646 40.3547 9.98863 43H7.62063C8.72996 38.4347 9.93529 34.3813 11.2366 30.84C12.538 27.2773 14.0846 23.864 15.8766 20.6H18.2766C20.0473 23.8427 21.5833 27.2453 22.8846 30.808C24.186 34.3493 25.3913 38.4133 26.5006 43H24.1326ZM21.9566 34.584C20.6553 30.4453 19.0233 26.5627 17.0606 22.936C15.098 26.5627 13.466 30.4453 12.1646 34.584H21.9566ZM36.3924 20.6C39.315 20.6 41.523 21.208 43.0164 22.424C44.531 23.6187 45.2884 25.3893 45.2884 27.736C45.2884 30.1253 44.531 31.928 43.0164 33.144C41.523 34.36 39.315 34.968 36.3924 34.968H32.0404V43H29.7364V20.6H36.3924ZM36.3924 32.984C38.675 32.984 40.339 32.568 41.3844 31.736C42.451 30.8827 42.9844 29.5493 42.9844 27.736C42.9844 25.944 42.451 24.6427 41.3844 23.832C40.339 23 38.675 22.584 36.3924 22.584H32.0404V32.984H36.3924ZM51.1199 20.6H53.4239V43H51.1199V20.6Z"/>
</mask>
<path d="M24.1326 43C23.5566 40.3547 23.0126 38.1893 22.5006 36.504H11.6206C11.1086 38.1893 10.5646 40.3547 9.98863 43H7.62063C8.72996 38.4347 9.93529 34.3813 11.2366 30.84C12.538 27.2773 14.0846 23.864 15.8766 20.6H18.2766C20.0473 23.8427 21.5833 27.2453 22.8846 30.808C24.186 34.3493 25.3913 38.4133 26.5006 43H24.1326ZM21.9566 34.584C20.6553 30.4453 19.0233 26.5627 17.0606 22.936C15.098 26.5627 13.466 30.4453 12.1646 34.584H21.9566ZM36.3924 20.6C39.315 20.6 41.523 21.208 43.0164 22.424C44.531 23.6187 45.2884 25.3893 45.2884 27.736C45.2884 30.1253 44.531 31.928 43.0164 33.144C41.523 34.36 39.315 34.968 36.3924 34.968H32.0404V43H29.7364V20.6H36.3924ZM36.3924 32.984C38.675 32.984 40.339 32.568 41.3844 31.736C42.451 30.8827 42.9844 29.5493 42.9844 27.736C42.9844 25.944 42.451 24.6427 41.3844 23.832C40.339 23 38.675 22.584 36.3924 22.584H32.0404V32.984H36.3924ZM51.1199 20.6H53.4239V43H51.1199V20.6Z" fill="white"/>
<path d="M24.1326 43L23.6441 43.1064L23.7298 43.5H24.1326V43ZM22.5006 36.504L22.979 36.3587L22.8713 36.004H22.5006V36.504ZM11.6206 36.504V36.004H11.25L11.1422 36.3587L11.6206 36.504ZM9.98863 43V43.5H10.3915L10.4772 43.1064L9.98863 43ZM7.62063 43L7.13476 42.8819L6.98458 43.5H7.62063V43ZM11.2366 30.84L11.7059 31.0125L11.7063 31.0115L11.2366 30.84ZM15.8766 20.6V20.1H15.5807L15.4383 20.3594L15.8766 20.6ZM18.2766 20.6L18.7155 20.3604L18.5733 20.1H18.2766V20.6ZM22.8846 30.808L22.415 30.9795L22.4153 30.9805L22.8846 30.808ZM26.5006 43V43.5H27.136L26.9866 42.8825L26.5006 43ZM21.9566 34.584V35.084H22.638L22.4336 34.434L21.9566 34.584ZM17.0606 22.936L17.5004 22.698L17.0606 21.8855L16.6209 22.698L17.0606 22.936ZM12.1646 34.584L11.6876 34.434L11.4833 35.084H12.1646V34.584ZM24.6212 42.8936C24.0437 40.2413 23.4964 38.0617 22.979 36.3587L22.0222 36.6493C22.5288 38.317 23.0696 40.468 23.6441 43.1064L24.6212 42.8936ZM22.5006 36.004H11.6206V37.004H22.5006V36.004ZM11.1422 36.3587C10.6248 38.0617 10.0776 40.2413 9.50007 42.8936L10.4772 43.1064C11.0517 40.468 11.5924 38.317 12.099 36.6493L11.1422 36.3587ZM9.98863 42.5H7.62063V43.5H9.98863V42.5ZM8.10649 43.1181C9.21238 38.5669 10.4125 34.5323 11.7059 31.0125L10.7673 30.6675C9.45808 34.2304 8.24754 38.3024 7.13476 42.8819L8.10649 43.1181ZM11.7063 31.0115C12.9991 27.4722 14.5353 24.082 16.3149 20.8406L15.4383 20.3594C13.6339 23.646 12.0768 27.0824 10.767 30.6685L11.7063 31.0115ZM15.8766 21.1H18.2766V20.1H15.8766V21.1ZM17.8378 20.8396C19.5962 24.0598 21.122 27.4397 22.415 30.9795L23.3543 30.6365C22.0446 27.051 20.4984 23.6255 18.7155 20.3604L17.8378 20.8396ZM22.4153 30.9805C23.7086 34.5 24.9087 38.5451 26.0146 43.1175L26.9866 42.8825C25.8738 38.2816 24.6633 34.1986 23.3539 30.6355L22.4153 30.9805ZM26.5006 42.5H24.1326V43.5H26.5006V42.5ZM22.4336 34.434C21.1232 30.2665 19.479 26.3542 17.5004 22.698L16.6209 23.174C18.5676 26.7711 20.1874 30.6242 21.4796 34.734L22.4336 34.434ZM16.6209 22.698C14.6423 26.3542 12.9981 30.2665 11.6876 34.434L12.6416 34.734C13.9339 30.6242 15.5537 26.7711 17.5004 23.174L16.6209 22.698ZM12.1646 35.084H21.9566V34.084H12.1646V35.084ZM43.0164 22.424L42.7006 22.8118L42.7067 22.8166L43.0164 22.424ZM43.0164 33.144L42.7034 32.7541L42.7007 32.7563L43.0164 33.144ZM32.0404 34.968V34.468H31.5404V34.968H32.0404ZM32.0404 43V43.5H32.5404V43H32.0404ZM29.7364 43H29.2364V43.5H29.7364V43ZM29.7364 20.6V20.1H29.2364V20.6H29.7364ZM41.3844 31.736L41.6957 32.1272L41.6967 32.1264L41.3844 31.736ZM41.3844 23.832L41.0729 24.2233L41.0818 24.2301L41.3844 23.832ZM32.0404 22.584V22.084H31.5404V22.584H32.0404ZM32.0404 32.984H31.5404V33.484H32.0404V32.984ZM36.3924 21.1C39.2569 21.1 41.3324 21.6976 42.7007 22.8117L43.3321 22.0363C41.7137 20.7184 39.3732 20.1 36.3924 20.1V21.1ZM42.7067 22.8166C44.075 23.8958 44.7884 25.5057 44.7884 27.736H45.7884C45.7884 25.273 44.9871 23.3415 43.326 22.0314L42.7067 22.8166ZM44.7884 27.736C44.7884 30.0122 44.0728 31.6547 42.7034 32.7541L43.3294 33.5339C44.9893 32.2013 45.7884 30.2385 45.7884 27.736H44.7884ZM42.7007 32.7563C41.3324 33.8704 39.2569 34.468 36.3924 34.468V35.468C39.3732 35.468 41.7137 34.8496 43.3321 33.5317L42.7007 32.7563ZM36.3924 34.468H32.0404V35.468H36.3924V34.468ZM31.5404 34.968V43H32.5404V34.968H31.5404ZM32.0404 42.5H29.7364V43.5H32.0404V42.5ZM30.2364 43V20.6H29.2364V43H30.2364ZM29.7364 21.1H36.3924V20.1H29.7364V21.1ZM36.3924 33.484C38.7155 33.484 40.5182 33.0645 41.6957 32.1272L41.073 31.3448C40.1599 32.0715 38.6346 32.484 36.3924 32.484V33.484ZM41.6967 32.1264C42.9182 31.1492 43.4844 29.6478 43.4844 27.736H42.4844C42.4844 29.4509 41.9839 30.6161 41.072 31.3456L41.6967 32.1264ZM43.4844 27.736C43.4844 25.8447 42.9173 24.369 41.6869 23.4339L41.0818 24.2301C41.9848 24.9163 42.4844 26.0433 42.4844 27.736H43.4844ZM41.6957 23.4408C40.5182 22.5035 38.7155 22.084 36.3924 22.084V23.084C38.6346 23.084 40.1599 23.4965 41.073 24.2232L41.6957 23.4408ZM36.3924 22.084H32.0404V23.084H36.3924V22.084ZM31.5404 22.584V32.984H32.5404V22.584H31.5404ZM32.0404 33.484H36.3924V32.484H32.0404V33.484ZM51.1199 20.6V20.1H50.6199V20.6H51.1199ZM53.4239 20.6H53.9239V20.1H53.4239V20.6ZM53.4239 43V43.5H53.9239V43H53.4239ZM51.1199 43H50.6199V43.5H51.1199V43ZM51.1199 21.1H53.4239V20.1H51.1199V21.1ZM52.9239 20.6V43H53.9239V20.6H52.9239ZM53.4239 42.5H51.1199V43.5H53.4239V42.5ZM51.6199 43V20.6H50.6199V43H51.6199Z" fill="white" mask="url(#path-3-outside-1_110_27)"/>
</svg>
