<svg width="62" height="62" viewBox="0 0 62 62" fill="none" xmlns="http://www.w3.org/2000/svg">
<rect width="62" height="62" rx="11.2048" fill="#1B1B1B" fill-opacity="0.28"/>
<rect x="1.12048" y="1.12048" width="59.759" height="59.759" rx="10.0843" stroke="white" stroke-opacity="0.56" stroke-width="2.24096"/>
<g clip-path="url(#clip0_110_6)">
<path d="M45.2602 17.5673C42.5609 16.3222 39.7113 15.4388 36.7842 14.9398C36.3836 15.6613 36.0212 16.4036 35.6984 17.1636C32.5804 16.6902 29.4097 16.6902 26.2917 17.1636C25.9688 16.4036 25.6063 15.6614 25.206 14.9398C22.277 15.443 19.4255 16.3285 16.7235 17.5738C11.3593 25.5702 9.90516 33.368 10.6322 41.0551C13.7736 43.3936 17.2897 45.1722 21.0277 46.3133C21.8694 45.1727 22.6142 43.9627 23.2542 42.696C22.0386 42.2386 20.8654 41.6743 19.7481 41.0095C20.0421 40.7946 20.3297 40.5732 20.6076 40.3583C23.8588 41.8988 27.4072 42.6976 30.9999 42.6976C34.5926 42.6976 38.141 41.8988 41.3922 40.3583C41.6733 40.5895 41.9609 40.8109 42.2517 41.0095C41.1322 41.6753 39.9569 42.2408 38.7392 42.6993C39.3784 43.9653 40.1232 45.1744 40.9656 46.3133C44.7068 45.1767 48.2256 43.3991 51.3676 41.0583C52.2207 32.1438 49.9102 24.4176 45.2602 17.5673ZM24.1751 36.3276C22.149 36.3276 20.4752 34.475 20.4752 32.1959C20.4752 29.9168 22.0909 28.0479 24.1687 28.0479C26.2465 28.0479 27.9074 29.9168 27.8719 32.1959C27.8363 34.475 26.24 36.3276 24.1751 36.3276ZM37.8247 36.3276C35.7953 36.3276 34.1279 34.475 34.1279 32.1959C34.1279 29.9168 35.7436 28.0479 37.8247 28.0479C39.9057 28.0479 41.5537 29.9168 41.5182 32.1959C41.4826 34.475 39.8896 36.3276 37.8247 36.3276Z" fill="white"/>
</g>
<defs>
<clipPath id="clip0_110_6">
<rect width="41.0843" height="31.3735" fill="white" transform="translate(10.4578 14.9398)"/>
</clipPath>
</defs>
</svg>
