<svg width="62" height="62" viewBox="0 0 62 62" fill="none" xmlns="http://www.w3.org/2000/svg">
<rect width="62" height="62" rx="11.2048" fill="#1B1B1B" fill-opacity="0.28"/>
<rect x="1.12048" y="1.12048" width="59.759" height="59.759" rx="10.0843" stroke="white" stroke-opacity="0.56" stroke-width="2.24096"/>
<g clip-path="url(#clip0_110_36)">
<path d="M24.6563 46.9062V45.8437H16.6875C15.42 45.842 14.2048 45.3377 13.3086 44.4414C12.4123 43.5451 11.908 42.33 11.9063 41.0624V40.2507C11.9021 39.2398 12.1817 38.248 12.7133 37.3881C13.2448 36.5282 14.007 35.8348 14.9132 35.3866C15.3184 35.1839 15.6649 34.8809 15.9197 34.5063C16.1746 34.1317 16.3292 33.698 16.3688 33.2467L17.3165 22.8129C17.6123 19.5229 19.1283 16.4626 21.5664 14.2338C24.0045 12.0051 27.1883 10.7692 30.4915 10.7692C33.7948 10.7692 36.9786 12.0051 39.4167 14.2338C41.8548 16.4626 43.3708 19.5229 43.6665 22.8129L44.6143 33.2467C44.6572 33.6968 44.8134 34.1287 45.0683 34.5021C45.3232 34.8756 45.6685 35.1784 46.072 35.3823C46.9789 35.8308 47.7419 36.5244 48.2745 37.3846C48.8072 38.2447 49.088 39.2369 49.0853 40.2486V41.0603C49.0842 42.328 48.5801 43.5435 47.6837 44.4399C46.7872 45.3363 45.5718 45.8404 44.304 45.8416H36.3438V46.9062C36.3438 48.4561 35.7281 49.9424 34.6322 51.0384C33.5363 52.1343 32.0499 52.7499 30.5 52.7499C28.9502 52.7499 27.4638 52.1343 26.3679 51.0384C25.272 49.9424 24.6563 48.4561 24.6563 46.9062ZM27.8438 46.9062C27.8438 47.6107 28.1236 48.2863 28.6218 48.7845C29.1199 49.2826 29.7956 49.5624 30.5 49.5624C31.2045 49.5624 31.8802 49.2826 32.3783 48.7845C32.8764 48.2863 33.1563 47.6107 33.1563 46.9062V45.8437H27.8438V46.9062ZM20.5019 23.1062L19.5563 33.5357C19.4686 34.5286 19.1272 35.4824 18.565 36.3054C18.0027 37.1285 17.2384 37.7934 16.3454 38.2362C15.969 38.4215 15.6521 38.7088 15.4308 39.0653C15.2096 39.4218 15.0928 39.8332 15.0938 40.2528V41.0646C15.0949 41.4867 15.2633 41.8912 15.562 42.1895C15.8607 42.4878 16.2654 42.6556 16.6875 42.6562H44.3125C44.7351 42.6556 45.1401 42.4875 45.4389 42.1888C45.7376 41.89 45.9057 41.485 45.9063 41.0624V40.2507C45.9077 39.8321 45.7918 39.4215 45.5717 39.0654C45.3516 38.7093 45.0361 38.4221 44.661 38.2362C43.767 37.794 43.0015 37.1295 42.4381 36.3064C41.8747 35.4833 41.5323 34.5292 41.4438 33.5357L40.5003 23.1062C40.2729 20.6114 39.1211 18.2916 37.2711 16.6025C35.421 14.9133 33.0063 13.9768 30.5011 13.9768C27.9959 13.9768 25.5812 14.9133 23.7312 16.6025C21.8811 18.2916 20.7293 20.6114 20.5019 23.1062Z" fill="white"/>
</g>
<defs>
<clipPath id="clip0_110_36">
<rect width="51" height="51" fill="white" transform="translate(5 6)"/>
</clipPath>
</defs>
</svg>
