<svg width="62" height="62" viewBox="0 0 62 62" fill="none" xmlns="http://www.w3.org/2000/svg">
<rect width="62" height="62" rx="11.2048" fill="#1B1B1B" fill-opacity="0.28"/>
<rect x="1.12048" y="1.12048" width="59.759" height="59.759" rx="10.0843" stroke="white" stroke-opacity="0.56" stroke-width="2.24096"/>
<g clip-path="url(#clip0_110_31)">
<path fill-rule="evenodd" clip-rule="evenodd" d="M53 31.5C53 19.074 42.926 9 30.5 9C18.074 9 8 19.074 8 31.5C8 43.926 18.074 54 30.5 54C42.926 54 53 43.926 53 31.5ZM18.1848 31.2627C24.744 28.4045 29.1175 26.521 31.306 25.6104C37.555 23.0115 38.8531 22.5598 39.6995 22.5448C39.8858 22.5422 40.3016 22.5879 40.5714 22.8067C40.799 22.9913 40.8614 23.2409 40.8913 23.4158C40.9212 23.5916 40.959 23.9897 40.9291 24.3018C40.5907 27.8596 39.1256 36.4931 38.3803 40.478C38.0647 42.1646 37.4434 42.7298 36.8422 42.7852C35.5361 42.9056 34.5438 41.9212 33.2782 41.0915C31.298 39.7942 30.1792 38.9856 28.257 37.7191C26.0352 36.2549 27.4757 35.4507 28.7413 34.1358C29.0727 33.7913 34.8295 28.5548 34.9411 28.0802C34.9552 28.0204 34.9684 27.7989 34.8365 27.682C34.7047 27.5651 34.5104 27.6056 34.3707 27.6372C34.1721 27.682 31.0089 29.773 24.8803 33.91C23.982 34.527 23.1682 34.8267 22.4396 34.8117C21.6362 34.7941 20.0911 34.3573 18.9424 33.9838C17.5335 33.5259 16.4138 33.2833 16.5113 32.5055C16.5614 32.1003 17.1195 31.6863 18.1848 31.2627Z" fill="white"/>
</g>
<defs>
<clipPath id="clip0_110_31">
<rect width="45" height="45" fill="white" transform="translate(8 9)"/>
</clipPath>
</defs>
</svg>
