<svg width="62" height="62" viewBox="0 0 62 62" fill="none" xmlns="http://www.w3.org/2000/svg">
<rect width="62" height="62" rx="11.2048" fill="#1B1B1B" fill-opacity="0.28"/>
<rect x="1.12048" y="1.12048" width="59.759" height="59.759" rx="10.0843" stroke="white" stroke-opacity="0.56" stroke-width="2.24096"/>
<g clip-path="url(#clip0_129_7)">
<path d="M12 16.75C12 14.1301 14.1301 12 16.75 12H38.125C40.7449 12 42.875 14.1301 42.875 16.75V21.5C42.875 24.1199 40.7449 26.25 38.125 26.25H16.75C14.1301 26.25 12 24.1199 12 21.5V16.75ZM23.875 38.125C23.875 36.8113 24.9363 35.75 26.25 35.75V34.5625C26.25 31.282 28.907 28.625 32.1875 28.625H42.875C44.1887 28.625 45.25 27.5637 45.25 26.25V23.875V17.1582C48.0184 18.1379 50 20.7727 50 23.875V26.25C50 30.1836 46.8086 33.375 42.875 33.375H32.1875C31.5344 33.375 31 33.9094 31 34.5625V35.75C32.3137 35.75 33.375 36.8113 33.375 38.125V47.625C33.375 48.9387 32.3137 50 31 50H26.25C24.9363 50 23.875 48.9387 23.875 47.625V38.125Z" fill="white"/>
</g>
<defs>
<clipPath id="clip0_129_7">
<rect width="38" height="38" fill="white" transform="translate(12 12)"/>
</clipPath>
</defs>
</svg>
